<?xml version="1.0" encoding="utf-8"?>
<!-- Generator: Adobe Illustrator 24.1.0, SVG Export Plug-In . SVG Version: 6.00 Build 0)  -->
<svg version="1.1" xmlns="http://www.w3.org/2000/svg" xmlns:xlink="http://www.w3.org/1999/xlink" x="0px" y="0px"
	 viewBox="0 0 234.73 113.39" style="enable-background:new 0 0 234.73 113.39;" xml:space="preserve">
<style type="text/css">
	.st0{fill:#503291;}
	.st1{fill:none;}
</style>
<g id="Ebene_1">
	<g id="LOGO_1_">
		<path class="st0" d="M169.83,67.7c1.46-0.03,2.73-0.69,3.65-1.6c0.01-0.02,0.65-0.65,1.45-1.45c0.47-0.47,1.09-0.78,1.78-0.87
			c0.12-0.02,0.45-0.02,0.49-0.02c0.25,0,0.49,0.02,0.73,0.05c0.75,0.09,1.47,0.3,2.13,0.61l6.25,2.59c0,0,1.51,0.7,2.78,0.7h0.92
			c0.28,0,0.5-0.25,0.5-0.54v-2.3c0-1.59-0.93-3.1-2.5-3.75l-1.36-0.56c-1.14-0.42-2.38-1.25-3.02-1.86c0,0-1.25-1.49,0.2-2.95
			l5.55-5.57c0.73-0.77,1.1-1.74,1.12-2.73c0,0,0.01-0.43-0.11-0.83c-0.09-0.3-0.28-0.56-0.43-0.71c-0.36-0.36-0.84-0.54-1.46-0.56
			c-0.02,0-0.88,0-0.88,0c-1.46,0.03-2.73,0.66-3.65,1.58c-0.04,0.04-3.66,3.67-4.62,4.63l-5.08,5.11c0,0,0-8.03,0-8.04
			c0-1.82-1.47-3.28-3.29-3.28c0,0-1.37,0-1.42,0c-0.37,0-0.91,0.01-1.16,0.14c-0.22,0.12-0.21,0.34-0.21,0.56c0,0,0,21.16,0,21.17
			c0,0.27,0.22,0.49,0.49,0.49H169.83z"/>
		<path class="st0" d="M143.45,64.97c0,0-1.18-0.33-3.5-2.16c-1.2-0.95-2.09-1.65-2.47-1.95c0.43-0.27,1.84-0.84,3.12-2.3
			c0.79-0.91,1.22-2.05,1.22-3.48c0-1.34-0.39-2.6-1.16-3.79c-0.77-1.18-1.77-2.21-3.01-3.09c-1.23-0.88-2.61-1.57-4.14-2.08
			c-1.53-0.51-3.02-0.76-4.51-0.76c0,0-9.01,0-9.02,0c-0.27,0-0.49,0.22-0.49,0.49c0,0.04,0,15.12,0,15.12v3.35v1.16v1.5
			c0,0.21,0,0.44,0.21,0.56c0.28,0.15,0.91,0.17,1.26,0.17c0.51,0,1.06-0.06,1.56-0.21c0.77-0.25,1.43-0.79,1.91-1.43
			c0.85-1.12,1.07-2.4,1.07-3.77c0-0.13,0-9.15,0-9.15c0-0.12,0.02-0.41,0.07-0.61c0.06-0.2,0.17-0.4,0.17-0.4
			c0.69-1.26,3.03-1.76,5.56-1.12c3.37,0.85,4.37,3.18,4.01,4.18c-0.38,1.08-1.6,1.76-3.12,1.76c-0.73,0-1.47-0.13-2.24-0.37
			c-0.03-0.01-0.5-0.14-0.88-0.27c-0.18-0.06-0.53-0.22-0.79-0.22c-0.26,0-0.39,0.2-0.39,0.61c0,0,0,2.39,0,2.39
			c0,0.82,0.33,1.55,0.82,1.99c0.02,0.02,7.37,5.81,7.37,5.81c0.72,0.52,1.49,0.81,2.32,0.81l4.86,0.01c0.34,0,0.51-0.23,0.51-0.64
			v-1.55C143.8,65.28,143.62,65.03,143.45,64.97z"/>
		<path class="st0" d="M114.05,61.9h-6.48c-0.92,0-1.76-0.24-2.58-0.59c-0.7-0.3-1.76-1.22-2.08-1.58
			c-0.59-0.65-1.06-1.41-1.39-2.27c-0.33-0.86-0.5-1.74-0.5-2.65c0-1.17,0.33-2.07,1-2.71c0.08-0.08,0.36-0.31,0.7-0.51
			c0.33-0.2,0.7-0.29,0.93-0.34c0.39-0.09,0.81-0.14,1.26-0.14c0.45,0,0.87,0.05,1.26,0.14c0.73,0.14,1.44,0.43,2.15,0.88
			c1.01,0.64,2.08,1.61,2.8,2.55l-6.74,0c-0.4,0-0.61,0.18-0.61,0.53c0,0.7,0.11,1.15,0.38,1.72c0.27,0.57,1.57,2.55,4.23,2.55
			l6.28,0c1.1,0,1.86-0.29,2.28-0.88c0.42-0.58,0.54-1.09,0.54-1.87c0-1.28-0.34-2.54-1.02-3.9c-0.68-1.36-1.6-2.59-2.75-3.7
			c-1.16-1.11-2.5-2.01-4.03-2.71c-1.53-0.7-3.14-1.05-4.81-1.05c0,0-9.21,0-9.22,0c-0.27,0-0.49,0.22-0.49,0.49
			c0,0.04,0,9.19,0,9.19c0,1.72,0.33,3.35,1,4.88c0.66,1.53,1.57,2.87,2.71,4.03c1.14,1.15,2.47,2.06,3.99,2.73
			c1.52,0.67,3.15,1.03,4.88,1.03h9.26c0.27,0,0.49-0.22,0.49-0.48v-1.86c0-1.08-0.3-1.93-0.91-2.54
			C115.95,62.2,115.12,61.9,114.05,61.9z"/>
		<path class="st0" d="M93.12,48.64c0-1.82-1.47-3.29-3.29-3.29h-3.48c-0.17,0-0.33,0.07-0.45,0.18l-6.98,6.55
			c-2.39,2.25-5.6,3.51-9.14,3.51c-3.68,0-7.02-1.38-9.44-3.79c0,0-5.13-4.82-5.17-4.86c-0.98-0.92-2.34-1.55-3.9-1.58h-4.17
			c-0.36,0-0.66,0.29-0.66,0.66v18.4c0,1.82,1.47,3.29,3.29,3.29h1.27l0.86,0c0.36,0,0.66-0.3,0.66-0.66l0-6.55
			c0-1.71,1.4-3.12,3.08-3.12c3.13,0,5.38,2.68,7.41,4.48c2.49,2.2,4.4,4.31,6.76,4.31c2.36,0,4.27-2.12,6.76-4.31
			c2.03-1.79,4.28-4.48,7.41-4.48c1.68,0,3.07,1.4,3.08,3.09c0,0,0,3.92,0,3.95c0,1.82,1.47,3.28,3.29,3.28c0,0,1.36,0,1.42,0
			c0.37,0,0.71,0,0.71,0l0,0c0.36,0,0.66-0.3,0.66-0.66C93.12,67.03,93.12,48.8,93.12,48.64z"/>
		<path class="st0" d="M165.69,58.35h-3.38c-1.24,0-2.05,0.54-2.42,1.61c-0.23,0.7-0.62,1.26-1.15,1.68
			c-0.54,0.42-1.22,0.63-2.06,0.63c-0.78,0-1.57-0.22-2.38-0.68c-0.81-0.45-1.54-1.03-2.19-1.74c-0.65-0.71-1.18-1.51-1.58-2.4
			c-0.4-0.89-0.61-1.76-0.61-2.64c0-1.1,0.33-2,0.99-2.68c0.67-0.68,1.5-1.03,2.51-1.03c1.16,0,2.3,0.42,3.42,1.27
			c0.46,0.35,0.95,0.52,1.47,0.52c0.52,0,1.07-0.29,1.64-0.87l2.3-2.27c0.14-0.14,0.19-0.28,0.15-0.39
			c-0.04-0.12-0.14-0.25-0.28-0.39c-1.24-1.13-2.6-2.02-4.07-2.66c-1.47-0.64-3.02-0.96-4.64-0.96h-9.06
			c-0.35,0-0.52,0.21-0.52,0.61v9.03c0,1.74,0.35,3.4,1.06,4.97c0.71,1.57,1.66,2.95,2.86,4.14c1.2,1.19,2.57,2.14,4.12,2.85
			c1.55,0.71,3.14,1.07,4.79,1.07c1.33,0,2.56-0.23,3.68-0.68c1.13-0.45,2.11-1.07,2.95-1.87c0.84-0.8,1.5-1.76,1.99-2.88
			c0.49-1.12,0.78-2.33,0.87-3.64C166.19,58.55,166.03,58.35,165.69,58.35z"/>
	</g>
</g>
<g id="Guides_2M_clear_space">
	<g>
		<g id="LOGO_9_">
			<path class="st1" d="M19.34,80.37c1.84,0,3.34-1.49,3.34-3.33V73.5c0-0.18-0.07-0.34-0.18-0.45l-6.65-7.08
				c-2.28-2.42-3.56-5.69-3.56-9.28c0-3.74,1.4-7.12,3.85-9.58c0,0,4.89-5.21,4.93-5.25c0.93-1,1.57-2.37,1.61-3.96v-4.23
				c0-0.37-0.3-0.67-0.67-0.67H3.34C1.49,33.02,0,34.51,0,36.35v1.29l0,0.87c0,0.37,0.3,0.67,0.67,0.67l6.65,0
				c1.74,0,3.17,1.42,3.17,3.13c0,3.18-2.72,5.46-4.54,7.52c-2.23,2.52-4.38,4.47-4.38,6.86c0,2.39,2.15,4.33,4.38,6.86
				c1.82,2.06,4.54,4.34,4.54,7.52c0,1.7-1.42,3.11-3.14,3.13c0,0-3.98,0-4.01,0C1.49,74.2,0,75.69,0,77.54c0,0,0,1.39,0,1.44
				c0,0.38,0,0.72,0,0.72l0,0c0,0.37,0.3,0.67,0.67,0.67C0.68,80.37,19.19,80.37,19.34,80.37z"/>
		</g>
		<g id="LOGO_8_">
			<path class="st1" d="M42.02,80.37c1.84,0,3.34-1.49,3.34-3.33V73.5c0-0.18-0.07-0.34-0.18-0.45l-6.65-7.08
				c-2.28-2.42-3.56-5.69-3.56-9.28c0-3.74,1.4-7.12,3.85-9.58c0,0,4.89-5.21,4.93-5.25c0.93-1,1.57-2.37,1.61-3.96v-4.23
				c0-0.37-0.3-0.67-0.67-0.67H26.01c-1.84,0-3.34,1.49-3.34,3.33v1.29l0,0.87c0,0.37,0.3,0.67,0.67,0.67l6.65,0
				c1.74,0,3.17,1.42,3.17,3.13c0,3.18-2.72,5.46-4.54,7.52c-2.23,2.52-4.38,4.47-4.38,6.86c0,2.39,2.15,4.33,4.38,6.86
				c1.82,2.06,4.54,4.34,4.54,7.52c0,1.7-1.42,3.11-3.14,3.13c0,0-3.98,0-4.01,0c-1.84,0-3.33,1.49-3.33,3.34c0,0,0,1.39,0,1.44
				c0,0.38,0,0.72,0,0.72l0,0c0,0.37,0.3,0.67,0.67,0.67C23.36,80.37,41.86,80.37,42.02,80.37z"/>
		</g>
	</g>
	<g>
		<g id="LOGO_3_">
			<path class="st1" d="M215.39,33.02c-1.84,0-3.34,1.49-3.34,3.33v3.53c0,0.18,0.07,0.34,0.18,0.45l6.65,7.08
				c2.28,2.42,3.56,5.69,3.56,9.28c0,3.74-1.4,7.12-3.85,9.58c0,0-4.89,5.21-4.93,5.25c-0.93,1-1.57,2.37-1.61,3.96v4.23
				c0,0.37,0.3,0.67,0.67,0.67h18.68c1.84,0,3.34-1.49,3.34-3.33v-1.29l0-0.87c0-0.37-0.3-0.67-0.67-0.67l-6.65,0
				c-1.74,0-3.17-1.42-3.17-3.13c0-3.18,2.72-5.46,4.54-7.52c2.23-2.52,4.38-4.47,4.38-6.86c0-2.39-2.15-4.33-4.38-6.86
				c-1.82-2.06-4.54-4.34-4.54-7.52c0-1.7,1.42-3.11,3.14-3.13c0,0,3.98,0,4.01,0c1.84,0,3.33-1.49,3.33-3.34c0,0,0-1.39,0-1.44
				c0-0.38,0-0.72,0-0.72l0,0c0-0.37-0.3-0.67-0.67-0.67C234.06,33.02,215.55,33.02,215.39,33.02z"/>
		</g>
		<g id="LOGO_2_">
			<path class="st1" d="M192.72,33.02c-1.84,0-3.34,1.49-3.34,3.33v3.53c0,0.18,0.07,0.34,0.18,0.45l6.65,7.08
				c2.28,2.42,3.56,5.69,3.56,9.28c0,3.74-1.4,7.12-3.85,9.58c0,0-4.89,5.21-4.93,5.25c-0.93,1-1.57,2.37-1.61,3.96v4.23
				c0,0.37,0.3,0.67,0.67,0.67h18.68c1.84,0,3.34-1.49,3.34-3.33v-1.29l0-0.87c0-0.37-0.3-0.67-0.67-0.67l-6.65,0
				c-1.74,0-3.17-1.42-3.17-3.13c0-3.18,2.72-5.46,4.54-7.52c2.23-2.52,4.38-4.47,4.38-6.86c0-2.39-2.15-4.33-4.38-6.86
				c-1.82-2.06-4.54-4.34-4.54-7.52c0-1.7,1.42-3.11,3.14-3.13c0,0,3.98,0,4.01,0c1.84,0,3.33-1.49,3.33-3.34c0,0,0-1.39,0-1.44
				c0-0.38,0-0.72,0-0.72l0,0c0-0.37-0.3-0.67-0.67-0.67C211.38,33.02,192.87,33.02,192.72,33.02z"/>
		</g>
	</g>
	<g>
		<g id="LOGO_5_">
			<path class="st1" d="M93.69,19.34c0,1.84,1.49,3.34,3.33,3.34h3.53c0.18,0,0.34-0.07,0.45-0.18l7.08-6.65
				c2.42-2.28,5.69-3.56,9.28-3.56c3.74,0,7.12,1.4,9.58,3.85c0,0,5.21,4.89,5.25,4.93c1,0.93,2.37,1.57,3.96,1.61h4.23
				c0.37,0,0.67-0.3,0.67-0.67V3.34c0-1.84-1.49-3.34-3.33-3.34h-1.29l-0.87,0c-0.37,0-0.67,0.3-0.67,0.67l0,6.65
				c0,1.74-1.42,3.17-3.13,3.17c-3.18,0-5.46-2.72-7.52-4.54c-2.52-2.23-4.47-4.38-6.86-4.38c-2.39,0-4.33,2.15-6.86,4.38
				c-2.06,1.82-4.34,4.54-7.52,4.54c-1.7,0-3.11-1.42-3.13-3.14c0,0,0-3.98,0-4.01c0-1.84-1.49-3.33-3.34-3.33c0,0-1.39,0-1.44,0
				c-0.38,0-0.72,0-0.72,0l0,0c-0.37,0-0.67,0.3-0.67,0.67C93.69,0.68,93.69,19.19,93.69,19.34z"/>
		</g>
		<g id="LOGO_4_">
			<path class="st1" d="M93.69,42.02c0,1.84,1.49,3.34,3.33,3.34h3.53c0.18,0,0.34-0.07,0.45-0.18l7.08-6.65
				c2.42-2.28,5.69-3.56,9.28-3.56c3.74,0,7.12,1.4,9.58,3.85c0,0,5.21,4.89,5.25,4.93c1,0.93,2.37,1.57,3.96,1.61h4.23
				c0.37,0,0.67-0.3,0.67-0.67V26.01c0-1.84-1.49-3.34-3.33-3.34h-1.29l-0.87,0c-0.37,0-0.67,0.3-0.67,0.67l0,6.65
				c0,1.74-1.42,3.17-3.13,3.17c-3.18,0-5.46-2.72-7.52-4.54c-2.52-2.23-4.47-4.38-6.86-4.38c-2.39,0-4.33,2.15-6.86,4.38
				c-2.06,1.82-4.34,4.54-7.52,4.54c-1.7,0-3.11-1.42-3.13-3.14c0,0,0-3.98,0-4.01c0-1.84-1.49-3.33-3.34-3.33c0,0-1.39,0-1.44,0
				c-0.38,0-0.72,0-0.72,0l0,0c-0.37,0-0.67,0.3-0.67,0.67C93.69,23.36,93.69,41.86,93.69,42.02z"/>
		</g>
	</g>
	<g>
		<g id="LOGO_7_">
			<path class="st1" d="M141.04,93.72c0-1.84-1.49-3.34-3.33-3.34h-3.53c-0.18,0-0.34,0.07-0.45,0.18l-7.08,6.65
				c-2.42,2.28-5.69,3.56-9.28,3.56c-3.74,0-7.12-1.4-9.58-3.85c0,0-5.21-4.89-5.25-4.93c-1-0.93-2.37-1.57-3.96-1.61h-4.23
				c-0.37,0-0.67,0.3-0.67,0.67v18.68c0,1.84,1.49,3.34,3.33,3.34h1.29l0.87,0c0.37,0,0.67-0.3,0.67-0.67l0-6.65
				c0-1.74,1.42-3.17,3.13-3.17c3.18,0,5.46,2.72,7.52,4.54c2.52,2.23,4.47,4.38,6.86,4.38c2.39,0,4.33-2.15,6.86-4.38
				c2.06-1.82,4.34-4.54,7.52-4.54c1.7,0,3.11,1.42,3.13,3.14c0,0,0,3.98,0,4.01c0,1.84,1.49,3.33,3.34,3.33c0,0,1.39,0,1.44,0
				c0.38,0,0.72,0,0.72,0l0,0c0.37,0,0.67-0.3,0.67-0.67C141.04,112.38,141.04,93.87,141.04,93.72z"/>
		</g>
		<g id="LOGO_6_">
			<path class="st1" d="M141.04,71.04c0-1.84-1.49-3.34-3.33-3.34h-3.53c-0.18,0-0.34,0.07-0.45,0.18l-7.08,6.65
				c-2.42,2.28-5.69,3.56-9.28,3.56c-3.74,0-7.12-1.4-9.58-3.85c0,0-5.21-4.89-5.25-4.93c-1-0.93-2.37-1.57-3.96-1.61h-4.23
				c-0.37,0-0.67,0.3-0.67,0.67v18.68c0,1.84,1.49,3.34,3.33,3.34h1.29l0.87,0c0.37,0,0.67-0.3,0.67-0.67l0-6.65
				c0-1.74,1.42-3.17,3.13-3.17c3.18,0,5.46,2.72,7.52,4.54c2.52,2.23,4.47,4.38,6.86,4.38c2.39,0,4.33-2.15,6.86-4.38
				c2.06-1.82,4.34-4.54,7.52-4.54c1.7,0,3.11,1.42,3.13,3.14c0,0,0,3.98,0,4.01c0,1.84,1.49,3.33,3.34,3.33c0,0,1.39,0,1.44,0
				c0.38,0,0.72,0,0.72,0l0,0c0.37,0,0.67-0.3,0.67-0.67C141.04,89.7,141.04,71.19,141.04,71.04z"/>
		</g>
	</g>
</g>
<g id="Guides_3M_clear_space_to_M-font">
	<g>
		<g id="LOGO_17_">
			<path class="st1" d="M19.34,80.37c1.84,0,3.34-1.49,3.34-3.33V73.5c0-0.18-0.07-0.34-0.18-0.45l-6.65-7.08
				c-2.28-2.42-3.56-5.69-3.56-9.28c0-3.74,1.4-7.12,3.85-9.58c0,0,4.89-5.21,4.93-5.25c0.93-1,1.57-2.37,1.61-3.96v-4.23
				c0-0.37-0.3-0.67-0.67-0.67H3.34C1.49,33.02,0,34.51,0,36.35v1.29l0,0.87c0,0.37,0.3,0.67,0.67,0.67l6.65,0
				c1.74,0,3.17,1.42,3.17,3.13c0,3.18-2.72,5.46-4.54,7.52c-2.23,2.52-4.38,4.47-4.38,6.86c0,2.39,2.15,4.33,4.38,6.86
				c1.82,2.06,4.54,4.34,4.54,7.52c0,1.7-1.42,3.11-3.14,3.13c0,0-3.98,0-4.01,0C1.49,74.2,0,75.69,0,77.54c0,0,0,1.39,0,1.44
				c0,0.38,0,0.72,0,0.72l0,0c0,0.37,0.3,0.67,0.67,0.67C0.68,80.37,19.19,80.37,19.34,80.37z"/>
		</g>
		<g id="LOGO_16_">
			<path class="st1" d="M42.02,80.37c1.84,0,3.34-1.49,3.34-3.33V73.5c0-0.18-0.07-0.34-0.18-0.45l-6.65-7.08
				c-2.28-2.42-3.56-5.69-3.56-9.28c0-3.74,1.4-7.12,3.85-9.58c0,0,4.89-5.21,4.93-5.25c0.93-1,1.57-2.37,1.61-3.96v-4.23
				c0-0.37-0.3-0.67-0.67-0.67H26.01c-1.84,0-3.34,1.49-3.34,3.33v1.29l0,0.87c0,0.37,0.3,0.67,0.67,0.67l6.65,0
				c1.74,0,3.17,1.42,3.17,3.13c0,3.18-2.72,5.46-4.54,7.52c-2.23,2.52-4.38,4.47-4.38,6.86c0,2.39,2.15,4.33,4.38,6.86
				c1.82,2.06,4.54,4.34,4.54,7.52c0,1.7-1.42,3.11-3.14,3.13c0,0-3.98,0-4.01,0c-1.84,0-3.33,1.49-3.33,3.34c0,0,0,1.39,0,1.44
				c0,0.38,0,0.72,0,0.72l0,0c0,0.37,0.3,0.67,0.67,0.67C23.36,80.37,41.86,80.37,42.02,80.37z"/>
		</g>
	</g>
	<g>
		<g id="LOGO_15_">
			<path class="st1" d="M215.39,33.02c-1.84,0-3.34,1.49-3.34,3.33v3.53c0,0.18,0.07,0.34,0.18,0.45l6.65,7.08
				c2.28,2.42,3.56,5.69,3.56,9.28c0,3.74-1.4,7.12-3.85,9.58c0,0-4.89,5.21-4.93,5.25c-0.93,1-1.57,2.37-1.61,3.96v4.23
				c0,0.37,0.3,0.67,0.67,0.67h18.68c1.84,0,3.34-1.49,3.34-3.33v-1.29l0-0.87c0-0.37-0.3-0.67-0.67-0.67l-6.65,0
				c-1.74,0-3.17-1.42-3.17-3.13c0-3.18,2.72-5.46,4.54-7.52c2.23-2.52,4.38-4.47,4.38-6.86c0-2.39-2.15-4.33-4.38-6.86
				c-1.82-2.06-4.54-4.34-4.54-7.52c0-1.7,1.42-3.11,3.14-3.13c0,0,3.98,0,4.01,0c1.84,0,3.33-1.49,3.33-3.34c0,0,0-1.39,0-1.44
				c0-0.38,0-0.72,0-0.72l0,0c0-0.37-0.3-0.67-0.67-0.67C234.06,33.02,215.55,33.02,215.39,33.02z"/>
		</g>
		<g id="LOGO_14_">
			<path class="st1" d="M192.72,33.02c-1.84,0-3.34,1.49-3.34,3.33v3.53c0,0.18,0.07,0.34,0.18,0.45l6.65,7.08
				c2.28,2.42,3.56,5.69,3.56,9.28c0,3.74-1.4,7.12-3.85,9.58c0,0-4.89,5.21-4.93,5.25c-0.93,1-1.57,2.37-1.61,3.96v4.23
				c0,0.37,0.3,0.67,0.67,0.67h18.68c1.84,0,3.34-1.49,3.34-3.33v-1.29l0-0.87c0-0.37-0.3-0.67-0.67-0.67l-6.65,0
				c-1.74,0-3.17-1.42-3.17-3.13c0-3.18,2.72-5.46,4.54-7.52c2.23-2.52,4.38-4.47,4.38-6.86c0-2.39-2.15-4.33-4.38-6.86
				c-1.82-2.06-4.54-4.34-4.54-7.52c0-1.7,1.42-3.11,3.14-3.13c0,0,3.98,0,4.01,0c1.84,0,3.33-1.49,3.33-3.34c0,0,0-1.39,0-1.44
				c0-0.38,0-0.72,0-0.72l0,0c0-0.37-0.3-0.67-0.67-0.67C211.38,33.02,192.87,33.02,192.72,33.02z"/>
		</g>
	</g>
	<g>
		<g id="LOGO_13_">
			<path class="st1" d="M93.69,19.34c0,1.84,1.49,3.34,3.33,3.34h3.53c0.18,0,0.34-0.07,0.45-0.18l7.08-6.65
				c2.42-2.28,5.69-3.56,9.28-3.56c3.74,0,7.12,1.4,9.58,3.85c0,0,5.21,4.89,5.25,4.93c1,0.93,2.37,1.57,3.96,1.61h4.23
				c0.37,0,0.67-0.3,0.67-0.67V3.34c0-1.84-1.49-3.34-3.33-3.34h-1.29l-0.87,0c-0.37,0-0.67,0.3-0.67,0.67l0,6.65
				c0,1.74-1.42,3.17-3.13,3.17c-3.18,0-5.46-2.72-7.52-4.54c-2.52-2.23-4.47-4.38-6.86-4.38c-2.39,0-4.33,2.15-6.86,4.38
				c-2.06,1.82-4.34,4.54-7.52,4.54c-1.7,0-3.11-1.42-3.13-3.14c0,0,0-3.98,0-4.01c0-1.84-1.49-3.33-3.34-3.33c0,0-1.39,0-1.44,0
				c-0.38,0-0.72,0-0.72,0l0,0c-0.37,0-0.67,0.3-0.67,0.67C93.69,0.68,93.69,19.19,93.69,19.34z"/>
		</g>
		<g id="LOGO_12_">
			<path class="st1" d="M93.69,42.02c0,1.84,1.49,3.34,3.33,3.34h3.53c0.18,0,0.34-0.07,0.45-0.18l7.08-6.65
				c2.42-2.28,5.69-3.56,9.28-3.56c3.74,0,7.12,1.4,9.58,3.85c0,0,5.21,4.89,5.25,4.93c1,0.93,2.37,1.57,3.96,1.61h4.23
				c0.37,0,0.67-0.3,0.67-0.67V26.01c0-1.84-1.49-3.34-3.33-3.34h-1.29l-0.87,0c-0.37,0-0.67,0.3-0.67,0.67l0,6.65
				c0,1.74-1.42,3.17-3.13,3.17c-3.18,0-5.46-2.72-7.52-4.54c-2.52-2.23-4.47-4.38-6.86-4.38c-2.39,0-4.33,2.15-6.86,4.38
				c-2.06,1.82-4.34,4.54-7.52,4.54c-1.7,0-3.11-1.42-3.13-3.14c0,0,0-3.98,0-4.01c0-1.84-1.49-3.33-3.34-3.33c0,0-1.39,0-1.44,0
				c-0.38,0-0.72,0-0.72,0l0,0c-0.37,0-0.67,0.3-0.67,0.67C93.69,23.36,93.69,41.86,93.69,42.02z"/>
		</g>
		<g id="LOGO_18_">
			<path class="st1" d="M93.69-3.34c0,1.84,1.49,3.34,3.33,3.34h3.53c0.18,0,0.34-0.07,0.45-0.18l7.08-6.65
				c2.42-2.28,5.69-3.56,9.28-3.56c3.74,0,7.12,1.4,9.58,3.85c0,0,5.21,4.89,5.25,4.93c1,0.93,2.37,1.57,3.96,1.61h4.23
				c0.37,0,0.67-0.3,0.67-0.67v-18.68c0-1.84-1.49-3.34-3.33-3.34h-1.29l-0.87,0c-0.37,0-0.67,0.3-0.67,0.67l0,6.65
				c0,1.74-1.42,3.17-3.13,3.17c-3.18,0-5.46-2.72-7.52-4.54c-2.52-2.23-4.47-4.38-6.86-4.38c-2.39,0-4.33,2.15-6.86,4.38
				c-2.06,1.82-4.34,4.54-7.52,4.54c-1.7,0-3.11-1.42-3.13-3.14c0,0,0-3.98,0-4.01c0-1.84-1.49-3.33-3.34-3.33c0,0-1.39,0-1.44,0
				c-0.38,0-0.72,0-0.72,0l0,0c-0.37,0-0.67,0.3-0.67,0.67C93.69-22,93.69-3.49,93.69-3.34z"/>
		</g>
		<g id="LOGO_19_">
			<path class="st1" d="M141.04,116.39c0-1.84-1.49-3.34-3.33-3.34h-3.53c-0.18,0-0.34,0.07-0.45,0.18l-7.08,6.65
				c-2.42,2.28-5.69,3.56-9.28,3.56c-3.74,0-7.12-1.4-9.58-3.85c0,0-5.21-4.89-5.25-4.93c-1-0.93-2.37-1.57-3.96-1.61h-4.23
				c-0.37,0-0.67,0.3-0.67,0.67v18.68c0,1.84,1.49,3.34,3.33,3.34h1.29l0.87,0c0.37,0,0.67-0.3,0.67-0.67l0-6.65
				c0-1.74,1.42-3.17,3.13-3.17c3.18,0,5.46,2.72,7.52,4.54c2.52,2.23,4.47,4.38,6.86,4.38c2.39,0,4.33-2.15,6.86-4.38
				c2.06-1.82,4.34-4.54,7.52-4.54c1.7,0,3.11,1.42,3.13,3.14c0,0,0,3.98,0,4.01c0,1.84,1.49,3.33,3.34,3.33c0,0,1.39,0,1.44,0
				c0.38,0,0.72,0,0.72,0l0,0c0.37,0,0.67-0.3,0.67-0.67C141.04,135.06,141.04,116.55,141.04,116.39z"/>
		</g>
		<g id="LOGO_20_">
			<path class="st1" d="M-3.31,80.21c1.84,0,3.34-1.49,3.34-3.33v-3.53c0-0.18-0.07-0.34-0.18-0.45L-6.8,65.8
				c-2.28-2.42-3.56-5.69-3.56-9.28c0-3.74,1.4-7.12,3.85-9.58c0,0,4.89-5.21,4.93-5.25c0.93-1,1.57-2.37,1.61-3.96v-4.23
				c0-0.37-0.3-0.67-0.67-0.67h-18.68c-1.84,0-3.34,1.49-3.34,3.33v1.29l0,0.87c0,0.37,0.3,0.67,0.67,0.67l6.65,0
				c1.74,0,3.17,1.42,3.17,3.13c0,3.18-2.72,5.46-4.54,7.52c-2.23,2.52-4.38,4.47-4.38,6.86c0,2.39,2.15,4.33,4.38,6.86
				c1.82,2.06,4.54,4.34,4.54,7.52c0,1.7-1.42,3.11-3.14,3.13c0,0-3.98,0-4.01,0c-1.84,0-3.33,1.49-3.33,3.34c0,0,0,1.39,0,1.44
				c0,0.38,0,0.72,0,0.72l0,0c0,0.37,0.3,0.67,0.67,0.67C-21.97,80.21-3.47,80.21-3.31,80.21z"/>
		</g>
		<g id="LOGO_21_">
			<path class="st1" d="M238.07,32.85c-1.84,0-3.34,1.49-3.34,3.33v3.53c0,0.18,0.07,0.34,0.18,0.45l6.65,7.08
				c2.28,2.42,3.56,5.69,3.56,9.28c0,3.74-1.4,7.12-3.85,9.58c0,0-4.89,5.21-4.93,5.25c-0.93,1-1.57,2.37-1.61,3.96v4.23
				c0,0.37,0.3,0.67,0.67,0.67h18.68c1.84,0,3.34-1.49,3.34-3.33v-1.29l0-0.87c0-0.37-0.3-0.67-0.67-0.67l-6.65,0
				c-1.74,0-3.17-1.42-3.17-3.13c0-3.18,2.72-5.46,4.54-7.52c2.23-2.52,4.38-4.47,4.38-6.86c0-2.39-2.15-4.33-4.38-6.86
				c-1.82-2.06-4.54-4.34-4.54-7.52c0-1.7,1.42-3.11,3.14-3.13c0,0,3.98,0,4.01,0c1.84,0,3.33-1.49,3.33-3.34c0,0,0-1.39,0-1.44
				c0-0.38,0-0.72,0-0.72l0,0c0-0.37-0.3-0.67-0.67-0.67C256.73,32.85,238.23,32.85,238.07,32.85z"/>
		</g>
	</g>
	<g>
		<g id="LOGO_11_">
			<path class="st1" d="M141.04,93.72c0-1.84-1.49-3.34-3.33-3.34h-3.53c-0.18,0-0.34,0.07-0.45,0.18l-7.08,6.65
				c-2.42,2.28-5.69,3.56-9.28,3.56c-3.74,0-7.12-1.4-9.58-3.85c0,0-5.21-4.89-5.25-4.93c-1-0.93-2.37-1.57-3.96-1.61h-4.23
				c-0.37,0-0.67,0.3-0.67,0.67v18.68c0,1.84,1.49,3.34,3.33,3.34h1.29l0.87,0c0.37,0,0.67-0.3,0.67-0.67l0-6.65
				c0-1.74,1.42-3.17,3.13-3.17c3.18,0,5.46,2.72,7.52,4.54c2.52,2.23,4.47,4.38,6.86,4.38c2.39,0,4.33-2.15,6.86-4.38
				c2.06-1.82,4.34-4.54,7.52-4.54c1.7,0,3.11,1.42,3.13,3.14c0,0,0,3.98,0,4.01c0,1.84,1.49,3.33,3.34,3.33c0,0,1.39,0,1.44,0
				c0.38,0,0.72,0,0.72,0l0,0c0.37,0,0.67-0.3,0.67-0.67C141.04,112.38,141.04,93.87,141.04,93.72z"/>
		</g>
		<g id="LOGO_10_">
			<path class="st1" d="M141.04,71.04c0-1.84-1.49-3.34-3.33-3.34h-3.53c-0.18,0-0.34,0.07-0.45,0.18l-7.08,6.65
				c-2.42,2.28-5.69,3.56-9.28,3.56c-3.74,0-7.12-1.4-9.58-3.85c0,0-5.21-4.89-5.25-4.93c-1-0.93-2.37-1.57-3.96-1.61h-4.23
				c-0.37,0-0.67,0.3-0.67,0.67v18.68c0,1.84,1.49,3.34,3.33,3.34h1.29l0.87,0c0.37,0,0.67-0.3,0.67-0.67l0-6.65
				c0-1.74,1.42-3.17,3.13-3.17c3.18,0,5.46,2.72,7.52,4.54c2.52,2.23,4.47,4.38,6.86,4.38c2.39,0,4.33-2.15,6.86-4.38
				c2.06-1.82,4.34-4.54,7.52-4.54c1.7,0,3.11,1.42,3.13,3.14c0,0,0,3.98,0,4.01c0,1.84,1.49,3.33,3.34,3.33c0,0,1.39,0,1.44,0
				c0.38,0,0.72,0,0.72,0l0,0c0.37,0,0.67-0.3,0.67-0.67C141.04,89.7,141.04,71.19,141.04,71.04z"/>
		</g>
	</g>
</g>
</svg>
