<?xml version="1.0"?>
<svg xmlns="http://www.w3.org/2000/svg" width="142" height="68" viewBox="0 0 142 68">
  <path class="base" d="M1.9 10.77l4.96 2.04c1.04.43 1.93 1.69 1.98 2.81l.42 9.53c.05 1.12.87 2.52 1.82 3.12l8.21 5.11c.95.59 2.43.48 3.28-.25l3.25-2.79c.85-.73.87-1.95.04-2.71L10.93 13.98c-.83-.76-2.35-1.73-3.39-2.16L.01 8.68v1.92c.66-.1 1.35-.05 1.89.17m139.75-1.89l-7.03 2.94c-1.04.43-2.56 1.41-3.39 2.16l-14.92 13.64c-.83.76-.81 1.98.04 2.71l3.25 2.79c.85.73 2.33.85 3.28.25l8.21-5.11c.95-.59 1.77-1.99 1.82-3.12l.42-9.53c.05-1.12.94-2.39 1.97-2.81l4.96-2.04c.43-.18.95-.24 1.49-.22v-.07c-.01-.55-.05-1.08-.1-1.59m-12.3 35.8l1.89-3.02c.6-.95 2-1.7 3.12-1.66l7.38.27v-1.32l-7.38-.32a2.05 2.05 0 0 1-1.95-2.13l.26-6.04c.05-1.12-.69-1.55-1.64-.96l-7.83 4.87c-.95.59-1.77 1.99-1.82 3.12l-.1 2.28c1.25 1.67 1.89 3.69 1.91 6.07l3.05.35c1.12.11 2.52-.56 3.11-1.51m12.39 21.03v-5.04l-8.62-.38c-1.12-.05-2.21-.99-2.43-2.09l-1.67-8.63c-.21-1.1-1.3-2.1-2.42-2.21l-3.41-.35v10.1c0 1.61.23 3.04.68 4.31.01.02.01.04.02.06.03.07.06.13.09.2a8.864 8.864 0 0 0 2 3.11c1.29 1.29 2.93 2.12 4.9 2.51.86.17 1.79.27 2.78.27h6.49c.13 0 .26-.01.37-.03.82-.14 1.22-.75 1.22-1.83M20.78 37.48c-.05-1.12-.87-2.52-1.82-3.12l-7.83-4.87c-.95-.59-1.69-.16-1.64.96l.26 6.04a2.05 2.05 0 0 1-1.95 2.13l-7.79.34v1.32L7.8 40c1.12-.04 2.52.7 3.12 1.66l1.89 3.02c.59.95 1.99 1.63 3.11 1.5l2.65-.3c.01-1.16.17-2.24.46-3.23.34-1.12.85-2.13 1.56-3.04.09-.11.18-.22.27-.32l-.08-1.81zm-2.23 9.56l-3 .31c-1.12.12-2.2 1.11-2.42 2.21l-1.67 8.63c-.21 1.1-1.31 2.04-2.43 2.09l-8.58.37c.44 1.63 1.22 3 2.33 4.12.31.31.65.59 1.01.85 1.1.81 2.4 1.36 3.89 1.66.86.17 1.79.27 2.78.27h6.49c.53 0 .93-.15 1.19-.46.04-.05.08-.11.12-.17l.06-.09c.15-.29.22-.67.22-1.13V47.04h.01zm86.08-14.69c.05-1.12.99-2.21 2.09-2.43l5.139-1c1.101-.21 2.681-1.01 3.511-1.77l14.92-13.66c.83-.76.72-1.85-.24-2.44l-3.4-2.07c-.96-.58-1.7-1.98-1.65-3.1l.26-5.88h-3.52c-.26 0-.52.03-.76.08-.24.06-.47.14-.69.25-.44.22-1.02.68-1.72 1.39L99.63 19.34c-.99.92-2.01 1.8-3.05 2.63-3.03 2.42-6.25 4.44-9.67 6.05-4.59 2.17-9.93 3.25-16.03 3.25-6.09 0-11.44-1.08-16.03-3.25-3.68-1.73-7.12-3.94-10.35-6.61-.8-.66-1.59-1.35-2.37-2.07l-8.88-8.28-6.88-6.42c-.24-.25-.5-.48-.75-.72-2.19-2.01-4.91-3.25-8.17-3.7-.18-.02-.36-.05-.54-.07l.25 5.73c.05 1.12-.7 2.51-1.65 3.1l-3.4 2.07c-.96.58-1.07 1.68-.24 2.44l14.92 13.66c.83.76 2.41 1.55 3.51 1.77l5.14 1c1.1.21 2.04 1.31 2.09 2.43l.3 6.91c.83.52 1.65 1.07 2.45 1.68.51.39 1.01.79 1.51 1.19 1.31 1.07 2.57 2.2 3.79 3.38.25.25.5.48.75.72 1.4 1.35 2.74 2.59 4.02 3.71 1.19 1.07 2.35 2.13 3.5 3.18.56.51 1.12 1.02 1.67 1.53 1.53 1.41 3.07 2.71 4.6 3.9l.43.34c1.16.89 2.32 1.64 3.48 2.27.1.05.19.11.29.16.42.22.84.42 1.26.61 1.68.75 3.44 1.13 5.3 1.13 1.85 0 3.62-.37 5.3-1.13 1.46-.65 2.92-1.52 4.38-2.57.22-.16.44-.31.66-.48 1.21-.92 2.42-1.92 3.63-2.98.47-.41.93-.83 1.4-1.26 1.54-1.42 3.12-2.86 4.74-4.32.14-.13.28-.26.43-.39.3-.26.6-.53.9-.81 1.23-1.11 2.52-2.32 3.87-3.63a55.988 55.988 0 0 1 3.65-3.26c.54-.44 1.09-.88 1.64-1.31.15-.11.3-.21.44-.32.79-.58 1.6-1.13 2.43-1.63l.28-6.62z" fill="#503291"/>
  <path class="primary" d="M120.48 38.82c.29.3.55.62.8.95l.1-2.28c.05-1.12.87-2.52 1.82-3.12l7.83-4.87c.95-.59 1.69-.16 1.64.96l-.26 6.04a2.05 2.05 0 0 0 1.95 2.13l7.38.32v-28.4c-.53-.03-1.06.04-1.49.22l-4.96 2.04c-1.04.43-1.93 1.69-1.97 2.81l-.42 9.53c-.05 1.12-.87 2.52-1.82 3.12l-8.21 5.11c-.95.59-2.43.48-3.28-.25l-3.25-2.79c-.85-.73-.87-1.95-.04-2.71l14.92-13.64c.83-.76 2.35-1.73 3.39-2.16l7.03-2.94c-.06-.61-.16-1.21-.3-1.76a9.398 9.398 0 0 0-1.39-3.1 8.531 8.531 0 0 0-1.01-1.23C137.09.95 134.52.02 131.26.02h-6.02l-.26 5.88c-.05 1.12.7 2.51 1.65 3.1l3.4 2.07c.96.58 1.07 1.68.24 2.44l-14.92 13.66c-.83.76-2.41 1.55-3.51 1.77l-5.14 1c-1.1.21-2.04 1.31-2.09 2.43l-.29 6.64c.73-.44 1.48-.83 2.23-1.2.24-.12.48-.25.73-.36.11-.05.21-.09.32-.14 1.93-.83 3.9-1.26 5.91-1.26 2.84-.02 5.16.91 6.97 2.77M134.36 40c-1.12-.04-2.52.7-3.12 1.66l-1.89 3.02c-.59.95-1.99 1.63-3.11 1.5l-3.05-.35c0 .05.01.09.01.14V47l3.41.35c1.12.12 2.2 1.11 2.42 2.21l1.67 8.63c.21 1.1 1.31 2.04 2.43 2.09l8.62.38V40.27l-7.39-.27zM.46 60.66l8.58-.37c1.12-.05 2.21-.99 2.43-2.09l1.67-8.63c.21-1.1 1.3-2.1 2.42-2.21l3-.31v-1.17l-2.65.3c-1.11.13-2.51-.55-3.11-1.5l-1.89-3.02c-.6-.95-2-1.7-3.12-1.66L0 40.28v16.81c.01 1.31.16 2.5.46 3.57m37.37-21.41l-.3-6.91c-.05-1.12-.99-2.21-2.09-2.43l-5.14-1c-1.1-.21-2.68-1.01-3.51-1.77L11.86 13.49c-.83-.76-.72-1.85.24-2.44l3.4-2.07c.96-.58 1.7-1.98 1.65-3.1L16.9.15C16.11.06 15.3 0 14.44 0H1.6c-.13 0-.26.01-.37.03-.01 0-.02.01-.02.01C1.1.06 1 .08.91.12.31.35.02.93.02 1.86v6.81l7.53 3.14c1.04.43 2.56 1.41 3.39 2.16l14.92 13.64c.83.76.81 1.98-.04 2.71l-3.25 2.79c-.85.73-2.33.85-3.28.25l-8.21-5.11c-.95-.59-1.77-1.99-1.82-3.12l-.42-9.53c-.05-1.12-.94-2.39-1.98-2.81L1.9 10.75c-.54-.22-1.23-.27-1.89-.18v28.4l7.79-.34c1.12-.05 2-1.01 1.95-2.13l-.26-6.04c-.05-1.12.69-1.55 1.64-.96l7.83 4.87c.95.59 1.77 1.99 1.82 3.12l.08 1.8c.14-.16.27-.32.41-.47a9.045 9.045 0 0 1 3.12-2.1c1.15-.46 2.43-.69 3.83-.69.53 0 1.06.03 1.58.09 1.03.11 2.05.34 3.05.68.02.01.04.01.06.02.04.01.07.03.11.04.48.17.95.35 1.42.57 1.16.52 2.29 1.14 3.39 1.82" fill="#eb3c96"/>
<style>
			@page {
				size: 142 68;
			}
		</style></svg>
